<svg width="373" height="57" viewBox="0 0 373 57" fill="none" xmlns="http://www.w3.org/2000/svg">
<g filter="url(#filter0_d)">
<path d="M41.9375 37.25C41.9375 38.6458 41.7604 39.8958 41.4062 41C41.0521 42.125 40.5833 43.1042 40 43.9375C39.4167 44.7917 38.7396 45.5104 37.9688 46.0938C37.1979 46.6979 36.3854 47.1875 35.5312 47.5625C34.6979 47.9375 33.8438 48.2083 32.9688 48.375C32.1146 48.5625 31.3021 48.6562 30.5312 48.6562H15.875V40.5312H30.5312C31.6354 40.5312 32.4583 40.25 33 39.6875C33.5417 39.125 33.8125 38.3125 33.8125 37.25V11.5938C33.8125 10.5312 33.5417 9.72917 33 9.1875C32.4583 8.625 31.6354 8.34375 30.5312 8.34375H15.875C14.875 8.34375 14.0833 8.65625 13.5 9.28125C12.9167 9.88542 12.625 10.6562 12.625 11.5938V22.5938C12.625 23.6562 12.9062 24.4688 13.4688 25.0312C14.0312 25.5938 14.8542 25.875 15.9375 25.875H30.5312V34H15.875C15.1042 34 14.2917 33.9167 13.4375 33.75C12.5833 33.5625 11.7292 33.2812 10.875 32.9062C10.0417 32.5312 9.23958 32.0521 8.46875 31.4688C7.69792 30.8646 7.02083 30.1458 6.4375 29.3125C5.85417 28.4583 5.38542 27.4792 5.03125 26.375C4.67708 25.25 4.5 23.9896 4.5 22.5938V11.5938C4.5 10.8229 4.58333 10.0104 4.75 9.15625C4.9375 8.30208 5.21875 7.45833 5.59375 6.625C5.96875 5.77083 6.44792 4.95833 7.03125 4.1875C7.63542 3.41667 8.35417 2.73958 9.1875 2.15625C10.0417 1.57292 11.0208 1.10417 12.125 0.75C13.2292 0.395833 14.4792 0.21875 15.875 0.21875H30.5312C31.3021 0.21875 32.1146 0.3125 32.9688 0.5C33.8438 0.666667 34.6979 0.9375 35.5312 1.3125C36.3854 1.6875 37.1979 2.17708 37.9688 2.78125C38.7396 3.36458 39.4167 4.08333 40 4.9375C40.5833 5.77083 41.0521 6.73958 41.4062 7.84375C41.7604 8.94792 41.9375 10.1979 41.9375 11.5938V37.25ZM84.25 22.8125C84.25 23.9375 84.0521 25.1562 83.6562 26.4688C83.2604 27.7604 82.6146 28.9688 81.7188 30.0938C80.8438 31.1979 79.6875 32.125 78.25 32.875C76.8333 33.625 75.1042 34 73.0625 34H58.4062C57.2812 34 56.0625 33.8021 54.75 33.4062C53.4583 33.0104 52.25 32.375 51.125 31.5C50.0208 30.6042 49.0938 29.4479 48.3438 28.0312C47.5938 26.5938 47.2188 24.8542 47.2188 22.8125C47.2188 21.6875 47.4167 20.4688 47.8125 19.1562C48.2083 17.8438 48.8438 16.6354 49.7188 15.5312C50.6146 14.4062 51.7708 13.4688 53.1875 12.7188C54.625 11.9688 56.3646 11.5938 58.4062 11.5938H73.0625V19.3438H58.4062C57.3021 19.3438 56.4479 19.6875 55.8438 20.375C55.2396 21.0417 54.9375 21.875 54.9375 22.875C54.9375 23.9375 55.2812 24.7708 55.9688 25.375C56.6771 25.9583 57.5104 26.25 58.4688 26.25H73.0625C74.1667 26.25 75.0208 25.9167 75.625 25.25C76.2292 24.5833 76.5312 23.75 76.5312 22.75V11.4062C76.5312 10.3438 76.1979 9.5 75.5312 8.875C74.8854 8.25 74.0625 7.9375 73.0625 7.9375H55.2188V0.21875H73.0625C74.1875 0.21875 75.3958 0.416667 76.6875 0.8125C78 1.20833 79.2083 1.85417 80.3125 2.75C81.4375 3.625 82.375 4.78125 83.125 6.21875C83.875 7.63542 84.25 9.36458 84.25 11.4062V22.8125ZM121.344 34H113.219V11.5938C113.219 10.5312 112.938 9.72917 112.375 9.1875C111.812 8.625 110.979 8.34375 109.875 8.34375H99.3125V34H91.1875V4.25C91.1875 3.6875 91.2917 3.16667 91.5 2.6875C91.7083 2.1875 92 1.76042 92.375 1.40625C92.75 1.03125 93.1875 0.739583 93.6875 0.53125C94.1875 0.322917 94.7188 0.21875 95.2812 0.21875H109.938C111.062 0.21875 112.271 0.416667 113.562 0.8125C114.854 1.20833 116.083 1.84375 117.25 2.71875V0.21875H128.25C129.021 0.21875 129.833 0.3125 130.688 0.5C131.542 0.666667 132.385 0.9375 133.219 1.3125C134.073 1.6875 134.885 2.17708 135.656 2.78125C136.427 3.36458 137.104 4.08333 137.688 4.9375C138.271 5.77083 138.74 6.73958 139.094 7.84375C139.448 8.94792 139.625 10.1979 139.625 11.5938V34H131.5V11.5938C131.5 10.5312 131.229 9.72917 130.688 9.1875C130.167 8.625 129.354 8.34375 128.25 8.34375H120.938C121.208 9.34375 121.344 10.4271 121.344 11.5938V34ZM183.469 11.4062C183.469 12.5312 183.271 13.75 182.875 15.0625C182.479 16.3542 181.833 17.5625 180.938 18.6875C180.062 19.7917 178.906 20.7188 177.469 21.4688C176.052 22.2188 174.323 22.5938 172.281 22.5938H157.625V14.875H172.281C173.385 14.875 174.24 14.5417 174.844 13.875C175.448 13.1875 175.75 12.3438 175.75 11.3438C175.75 10.2812 175.406 9.44792 174.719 8.84375C174.052 8.23958 173.24 7.9375 172.281 7.9375H157.625C156.521 7.9375 155.667 8.28125 155.062 8.96875C154.458 9.63542 154.156 10.4688 154.156 11.4688V22.8125C154.156 23.8958 154.49 24.7396 155.156 25.3438C155.844 25.9479 156.688 26.25 157.688 26.25H172.281V34H157.625C156.5 34 155.281 33.8021 153.969 33.4062C152.677 33.0104 151.469 32.375 150.344 31.5C149.24 30.6042 148.312 29.4479 147.562 28.0312C146.812 26.5938 146.438 24.8542 146.438 22.8125V11.4062C146.438 10.2812 146.635 9.07292 147.031 7.78125C147.427 6.46875 148.062 5.26042 148.938 4.15625C149.833 3.03125 150.99 2.09375 152.406 1.34375C153.844 0.59375 155.583 0.21875 157.625 0.21875H172.281C173.406 0.21875 174.615 0.416667 175.906 0.8125C177.219 1.20833 178.427 1.85417 179.531 2.75C180.656 3.625 181.594 4.78125 182.344 6.21875C183.094 7.63542 183.469 9.36458 183.469 11.4062ZM246.5 22.5938C246.5 23.9896 246.323 25.25 245.969 26.375C245.615 27.4792 245.146 28.4583 244.562 29.3125C243.979 30.1458 243.302 30.8646 242.531 31.4688C241.76 32.0521 240.948 32.5312 240.094 32.9062C239.26 33.2812 238.406 33.5625 237.531 33.75C236.677 33.9167 235.865 34 235.094 34H220.438C219.312 34 218.083 33.8021 216.75 33.4062C215.417 33.0104 214.177 32.3646 213.031 31.4688C211.906 30.5521 210.958 29.375 210.188 27.9375C209.438 26.4792 209.062 24.6979 209.062 22.5938V11.5938C209.062 9.51042 209.438 7.75 210.188 6.3125C210.958 4.85417 211.906 3.67708 213.031 2.78125C214.177 1.86458 215.417 1.20833 216.75 0.8125C218.083 0.416667 219.312 0.21875 220.438 0.21875H235.094C237.177 0.21875 238.948 0.59375 240.406 1.34375C241.865 2.09375 243.042 3.04167 243.938 4.1875C244.833 5.3125 245.479 6.54167 245.875 7.875C246.292 9.20833 246.5 10.4479 246.5 11.5938V22.5938ZM238.375 11.6562C238.375 10.5312 238.094 9.69792 237.531 9.15625C236.969 8.61458 236.156 8.34375 235.094 8.34375H220.5C219.417 8.34375 218.594 8.625 218.031 9.1875C217.469 9.72917 217.188 10.5312 217.188 11.5938V22.5938C217.188 23.6562 217.469 24.4688 218.031 25.0312C218.594 25.5938 219.417 25.875 220.5 25.875H235.094C236.198 25.875 237.021 25.5938 237.562 25.0312C238.104 24.4688 238.375 23.6562 238.375 22.5938V11.6562ZM293.75 0.21875C292.833 3.07292 291.76 5.88542 290.531 8.65625C289.302 11.4271 287.885 14.0729 286.281 16.5938C284.698 19.0938 282.917 21.4167 280.938 23.5625C278.979 25.6875 276.802 27.5312 274.406 29.0938C272.031 30.6354 269.438 31.8542 266.625 32.75C263.833 33.625 260.802 34.0625 257.531 34.0625C256.969 34.0625 256.438 33.9583 255.938 33.75C255.438 33.5417 255 33.2604 254.625 32.9062C254.25 32.5312 253.958 32.1042 253.75 31.625C253.542 31.125 253.438 30.5938 253.438 30.0312V0.21875H261.562V25.625C263.542 25.625 265.438 25.1979 267.25 24.3438C269.083 23.4896 270.812 22.3646 272.438 20.9688C274.062 19.5521 275.562 17.9479 276.938 16.1562C278.333 14.3646 279.573 12.5312 280.656 10.6562C281.74 8.76042 282.656 6.90625 283.406 5.09375C284.177 3.28125 284.75 1.65625 285.125 0.21875H293.75ZM333.031 11.4062C333.031 12.5312 332.833 13.75 332.438 15.0625C332.042 16.3542 331.396 17.5625 330.5 18.6875C329.625 19.7917 328.469 20.7188 327.031 21.4688C325.615 22.2188 323.885 22.5938 321.844 22.5938H307.188V14.875H321.844C322.948 14.875 323.802 14.5417 324.406 13.875C325.01 13.1875 325.312 12.3438 325.312 11.3438C325.312 10.2812 324.969 9.44792 324.281 8.84375C323.615 8.23958 322.802 7.9375 321.844 7.9375H307.188C306.083 7.9375 305.229 8.28125 304.625 8.96875C304.021 9.63542 303.719 10.4688 303.719 11.4688V22.8125C303.719 23.8958 304.052 24.7396 304.719 25.3438C305.406 25.9479 306.25 26.25 307.25 26.25H321.844V34H307.188C306.062 34 304.844 33.8021 303.531 33.4062C302.24 33.0104 301.031 32.375 299.906 31.5C298.802 30.6042 297.875 29.4479 297.125 28.0312C296.375 26.5938 296 24.8542 296 22.8125V11.4062C296 10.2812 296.198 9.07292 296.594 7.78125C296.99 6.46875 297.625 5.26042 298.5 4.15625C299.396 3.03125 300.552 2.09375 301.969 1.34375C303.406 0.59375 305.146 0.21875 307.188 0.21875H321.844C322.969 0.21875 324.177 0.416667 325.469 0.8125C326.781 1.20833 327.99 1.85417 329.094 2.75C330.219 3.625 331.156 4.78125 331.906 6.21875C332.656 7.63542 333.031 9.36458 333.031 11.4062ZM368.062 8.34375H349.781C348.677 8.34375 347.844 8.625 347.281 9.1875C346.719 9.72917 346.438 10.5312 346.438 11.5938V34H338.312V11.5938C338.312 10.1979 338.49 8.94792 338.844 7.84375C339.198 6.73958 339.667 5.77083 340.25 4.9375C340.854 4.08333 341.542 3.36458 342.312 2.78125C343.083 2.17708 343.885 1.6875 344.719 1.3125C345.573 0.9375 346.427 0.666667 347.281 0.5C348.156 0.3125 348.969 0.21875 349.719 0.21875H368.062V8.34375Z" fill="black"/>
</g>
<defs>
<filter id="filter0_d" x="0.5" y="0.21875" width="371.562" height="56.4375" filterUnits="userSpaceOnUse" color-interpolation-filters="sRGB">
<feFlood flood-opacity="0" result="BackgroundImageFix"/>
<feColorMatrix in="SourceAlpha" type="matrix" values="0 0 0 0 0 0 0 0 0 0 0 0 0 0 0 0 0 0 127 0"/>
<feOffset dy="4"/>
<feGaussianBlur stdDeviation="2"/>
<feColorMatrix type="matrix" values="0 0 0 0 0 0 0 0 0 0 0 0 0 0 0 0 0 0 0.25 0"/>
<feBlend mode="normal" in2="BackgroundImageFix" result="effect1_dropShadow"/>
<feBlend mode="normal" in="SourceGraphic" in2="effect1_dropShadow" result="shape"/>
</filter>
</defs>
</svg>
