<svg width="213" height="37" viewBox="0 0 213 37" fill="none" xmlns="http://www.w3.org/2000/svg">
<path d="M21.6328 28H17.0625V15.3965C17.0625 14.7988 16.9102 14.3477 16.6055 14.043C16.3008 13.7266 15.8438 13.5684 15.2344 13.5684H6.99023V8.99805H15.2344C15.668 8.99805 16.125 9.05078 16.6055 9.15625C17.0859 9.25 17.5605 9.40234 18.0293 9.61328C18.5098 9.82422 18.9668 10.0996 19.4004 10.4395C19.834 10.7676 20.2148 11.1719 20.543 11.6523C20.8711 12.1211 21.1348 12.666 21.334 13.2871C21.5332 13.9082 21.6328 14.6113 21.6328 15.3965V28ZM5.14453 28H0.574219V0.964844H5.14453V28ZM30.457 5.0957H25.8867V0.964844H30.457V5.0957ZM30.457 28H25.8867V8.99805H30.457V28ZM55.5234 29.8281C55.5234 30.6133 55.4238 31.3164 55.2246 31.9375C55.0254 32.5703 54.7617 33.1211 54.4336 33.5898C54.1055 34.0703 53.7246 34.4746 53.291 34.8027C52.8574 35.1426 52.4004 35.418 51.9199 35.6289C51.4512 35.8398 50.9707 35.9922 50.4785 36.0859C49.998 36.1914 49.541 36.2441 49.1074 36.2441H40.8633V31.6738H49.1074C49.7285 31.6738 50.1914 31.5156 50.4961 31.1992C50.8008 30.8828 50.9531 30.4258 50.9531 29.8281V15.3965C50.9531 14.7988 50.8008 14.3477 50.4961 14.043C50.1914 13.7266 49.7285 13.5684 49.1074 13.5684H40.8633C40.3008 13.5684 39.8555 13.7441 39.5273 14.0957C39.1992 14.4355 39.0352 14.8691 39.0352 15.3965V21.584C39.0352 22.1816 39.1934 22.6387 39.5098 22.9551C39.8262 23.2715 40.2891 23.4297 40.8984 23.4297H49.1074V28H40.8633C40.4297 28 39.9727 27.9531 39.4922 27.8594C39.0117 27.7539 38.5312 27.5957 38.0508 27.3848C37.582 27.1738 37.1309 26.9043 36.6973 26.5762C36.2637 26.2363 35.8828 25.832 35.5547 25.3633C35.2266 24.8828 34.9629 24.332 34.7637 23.7109C34.5645 23.0781 34.4648 22.3691 34.4648 21.584V15.3965C34.4648 14.9629 34.5117 14.5059 34.6055 14.0254C34.7109 13.5449 34.8691 13.0703 35.0801 12.6016C35.291 12.1211 35.5605 11.6641 35.8887 11.2305C36.2285 10.7969 36.6328 10.416 37.1016 10.0879C37.582 9.75977 38.1328 9.49609 38.7539 9.29688C39.375 9.09766 40.0781 8.99805 40.8633 8.99805H49.1074C49.541 8.99805 49.998 9.05078 50.4785 9.15625C50.9707 9.25 51.4512 9.40234 51.9199 9.61328C52.4004 9.82422 52.8574 10.0996 53.291 10.4395C53.7246 10.7676 54.1055 11.1719 54.4336 11.6523C54.7617 12.1211 55.0254 12.666 55.2246 13.2871C55.4238 13.9082 55.5234 14.6113 55.5234 15.3965V29.8281ZM80.8359 28H76.2656V15.3965C76.2656 14.7988 76.1133 14.3477 75.8086 14.043C75.5039 13.7266 75.0469 13.5684 74.4375 13.5684H66.1934V8.99805H74.4375C74.8711 8.99805 75.3281 9.05078 75.8086 9.15625C76.2891 9.25 76.7637 9.40234 77.2324 9.61328C77.7129 9.82422 78.1699 10.0996 78.6035 10.4395C79.0371 10.7676 79.418 11.1719 79.7461 11.6523C80.0742 12.1211 80.3379 12.666 80.5371 13.2871C80.7363 13.9082 80.8359 14.6113 80.8359 15.3965V28ZM64.3477 28H59.7773V0.964844H64.3477V28ZM115.096 21.584C115.096 22.3691 114.996 23.0781 114.797 23.7109C114.598 24.332 114.334 24.8828 114.006 25.3633C113.678 25.832 113.297 26.2363 112.863 26.5762C112.43 26.9043 111.973 27.1738 111.492 27.3848C111.023 27.5957 110.543 27.7539 110.051 27.8594C109.57 27.9531 109.113 28 108.68 28H96.3047V23.4297H108.645C109.266 23.4297 109.734 23.2715 110.051 22.9551C110.367 22.6387 110.525 22.1816 110.525 21.584C110.467 20.3652 109.852 19.7559 108.68 19.7559H101.596C100.588 19.7559 99.7324 19.5801 99.0293 19.2285C98.3262 18.877 97.752 18.4375 97.3066 17.9102C96.873 17.3828 96.5566 16.8145 96.3574 16.2051C96.1699 15.5957 96.0762 15.0273 96.0762 14.5C96.0762 13.4805 96.2578 12.625 96.6211 11.9336C96.9844 11.2305 97.4414 10.6621 97.9922 10.2285C98.543 9.79492 99.1406 9.48438 99.7852 9.29688C100.43 9.09766 101.033 8.99805 101.596 8.99805H112.828V13.5684H101.631C101.396 13.5684 101.209 13.5977 101.068 13.6562C100.939 13.7031 100.84 13.7734 100.77 13.8672C100.711 13.9492 100.676 14.043 100.664 14.1484C100.652 14.2422 100.646 14.3359 100.646 14.4297C100.658 14.6172 100.693 14.7637 100.752 14.8691C100.811 14.9746 100.881 15.0508 100.963 15.0977C101.057 15.1445 101.156 15.1738 101.262 15.1855C101.379 15.1855 101.49 15.1855 101.596 15.1855H108.68C109.852 15.1855 110.848 15.3965 111.668 15.8184C112.488 16.2402 113.15 16.7734 113.654 17.418C114.158 18.0508 114.521 18.7422 114.744 19.4922C114.979 20.2422 115.096 20.9395 115.096 21.584ZM136.717 28H124.324C123.691 28 123 27.8887 122.25 27.666C121.5 27.4434 120.803 27.0801 120.158 26.5762C119.525 26.0605 118.992 25.3984 118.559 24.5898C118.137 23.7695 117.926 22.7676 117.926 21.584V15.3965C117.926 14.9629 117.973 14.5059 118.066 14.0254C118.172 13.5449 118.33 13.0703 118.541 12.6016C118.752 12.1211 119.021 11.6641 119.35 11.2305C119.689 10.7969 120.094 10.416 120.562 10.0879C121.043 9.75977 121.594 9.49609 122.215 9.29688C122.836 9.09766 123.539 8.99805 124.324 8.99805H136.717V13.5684H124.324C123.727 13.5684 123.27 13.7207 122.953 14.0254C122.648 14.3301 122.496 14.7988 122.496 15.4316V21.584C122.496 22.1816 122.654 22.6387 122.971 22.9551C123.287 23.2715 123.75 23.4297 124.359 23.4297H136.717V28ZM161.027 21.584C161.027 22.3691 160.928 23.0781 160.729 23.7109C160.529 24.332 160.266 24.8828 159.938 25.3633C159.609 25.832 159.229 26.2363 158.795 26.5762C158.361 26.9043 157.904 27.1738 157.424 27.3848C156.955 27.5957 156.475 27.7539 155.982 27.8594C155.502 27.9531 155.045 28 154.611 28H146.367C145.734 28 145.043 27.8887 144.293 27.666C143.543 27.4434 142.846 27.0801 142.201 26.5762C141.568 26.0605 141.035 25.3984 140.602 24.5898C140.18 23.7695 139.969 22.7676 139.969 21.584V15.3965C139.969 14.2246 140.18 13.2344 140.602 12.4258C141.035 11.6055 141.568 10.9434 142.201 10.4395C142.846 9.92383 143.543 9.55469 144.293 9.33203C145.043 9.10938 145.734 8.99805 146.367 8.99805H154.611C155.783 8.99805 156.779 9.20898 157.6 9.63086C158.42 10.0527 159.082 10.5859 159.586 11.2305C160.09 11.8633 160.453 12.5547 160.676 13.3047C160.91 14.0547 161.027 14.752 161.027 15.3965V21.584ZM156.457 15.4316C156.457 14.7988 156.299 14.3301 155.982 14.0254C155.666 13.7207 155.209 13.5684 154.611 13.5684H146.402C145.793 13.5684 145.33 13.7266 145.014 14.043C144.697 14.3477 144.539 14.7988 144.539 15.3965V21.584C144.539 22.1816 144.697 22.6387 145.014 22.9551C145.33 23.2715 145.793 23.4297 146.402 23.4297H154.611C155.232 23.4297 155.695 23.2715 156 22.9551C156.305 22.6387 156.457 22.1816 156.457 21.584V15.4316ZM181.559 13.5684H171.275C170.654 13.5684 170.186 13.7266 169.869 14.043C169.553 14.3477 169.395 14.7988 169.395 15.3965V28H164.824V15.3965C164.824 14.6113 164.924 13.9082 165.123 13.2871C165.322 12.666 165.586 12.1211 165.914 11.6523C166.254 11.1719 166.641 10.7676 167.074 10.4395C167.508 10.0996 167.959 9.82422 168.428 9.61328C168.908 9.40234 169.389 9.25 169.869 9.15625C170.361 9.05078 170.818 8.99805 171.24 8.99805H181.559V13.5684ZM204.955 15.291C204.955 15.9238 204.844 16.6094 204.621 17.3477C204.398 18.0742 204.035 18.7539 203.531 19.3867C203.039 20.0078 202.389 20.5293 201.58 20.9512C200.783 21.373 199.811 21.584 198.662 21.584H190.418V17.2422H198.662C199.283 17.2422 199.764 17.0547 200.104 16.6797C200.443 16.293 200.613 15.8184 200.613 15.2559C200.613 14.6582 200.42 14.1895 200.033 13.8496C199.658 13.5098 199.201 13.3398 198.662 13.3398H190.418C189.797 13.3398 189.316 13.5332 188.977 13.9199C188.637 14.2949 188.467 14.7637 188.467 15.3262V21.707C188.467 22.3164 188.654 22.791 189.029 23.1309C189.416 23.4707 189.891 23.6406 190.453 23.6406H198.662V28H190.418C189.785 28 189.1 27.8887 188.361 27.666C187.635 27.4434 186.955 27.0859 186.322 26.5938C185.701 26.0898 185.18 25.4395 184.758 24.6426C184.336 23.834 184.125 22.8555 184.125 21.707V15.291C184.125 14.6582 184.236 13.9785 184.459 13.252C184.682 12.5137 185.039 11.834 185.531 11.2129C186.035 10.5801 186.686 10.0527 187.482 9.63086C188.291 9.20898 189.27 8.99805 190.418 8.99805H198.662C199.295 8.99805 199.975 9.10938 200.701 9.33203C201.439 9.55469 202.119 9.91797 202.74 10.4219C203.373 10.9141 203.9 11.5645 204.322 12.373C204.744 13.1699 204.955 14.1426 204.955 15.291ZM212.531 25.6973C212.531 26.0137 212.467 26.3125 212.338 26.5938C212.221 26.8633 212.057 27.1035 211.846 27.3145C211.646 27.5137 211.406 27.6719 211.125 27.7891C210.855 27.9062 210.568 27.9648 210.264 27.9648C209.947 27.9648 209.648 27.9062 209.367 27.7891C209.098 27.6719 208.857 27.5137 208.646 27.3145C208.447 27.1035 208.289 26.8633 208.172 26.5938C208.055 26.3125 207.996 26.0137 207.996 25.6973C207.996 25.3926 208.055 25.1055 208.172 24.8359C208.289 24.5547 208.447 24.3145 208.646 24.1152C208.857 23.9043 209.098 23.7402 209.367 23.623C209.648 23.4941 209.947 23.4297 210.264 23.4297C210.568 23.4297 210.855 23.4941 211.125 23.623C211.406 23.7402 211.646 23.9043 211.846 24.1152C212.057 24.3145 212.221 24.5547 212.338 24.8359C212.467 25.1055 212.531 25.3926 212.531 25.6973ZM212.531 11.3008C212.531 11.6172 212.467 11.916 212.338 12.1973C212.221 12.4668 212.057 12.707 211.846 12.918C211.646 13.1172 211.406 13.2754 211.125 13.3926C210.855 13.5098 210.568 13.5684 210.264 13.5684C209.947 13.5684 209.648 13.5098 209.367 13.3926C209.098 13.2754 208.857 13.1172 208.646 12.918C208.447 12.707 208.289 12.4668 208.172 12.1973C208.055 11.916 207.996 11.6172 207.996 11.3008C207.996 10.9961 208.055 10.709 208.172 10.4395C208.289 10.1582 208.447 9.91797 208.646 9.71875C208.857 9.50781 209.098 9.34375 209.367 9.22656C209.648 9.09766 209.947 9.0332 210.264 9.0332C210.568 9.0332 210.855 9.09766 211.125 9.22656C211.406 9.34375 211.646 9.50781 211.846 9.71875C212.057 9.91797 212.221 10.1582 212.338 10.4395C212.467 10.709 212.531 10.9961 212.531 11.3008Z" fill="black"/>
</svg>
