<svg width="118" height="20" viewBox="0 0 118 20" fill="none" xmlns="http://www.w3.org/2000/svg">
<path d="M19.9844 13.584C19.9844 14.3691 19.8848 15.0781 19.6855 15.7109C19.4863 16.332 19.2227 16.8828 18.8945 17.3633C18.5664 17.832 18.1855 18.2363 17.752 18.5762C17.3184 18.9043 16.8613 19.1738 16.3809 19.3848C15.9121 19.5957 15.4316 19.7539 14.9395 19.8594C14.459 19.9531 14.002 20 13.5684 20H1.19336V15.4297H13.5332C14.1543 15.4297 14.623 15.2715 14.9395 14.9551C15.2559 14.6387 15.4141 14.1816 15.4141 13.584C15.3555 12.3652 14.7402 11.7559 13.5684 11.7559H6.48438C5.47656 11.7559 4.62109 11.5801 3.91797 11.2285C3.21484 10.877 2.64062 10.4375 2.19531 9.91016C1.76172 9.38281 1.44531 8.81445 1.24609 8.20508C1.05859 7.5957 0.964844 7.02734 0.964844 6.5C0.964844 5.48047 1.14648 4.625 1.50977 3.93359C1.87305 3.23047 2.33008 2.66211 2.88086 2.22852C3.43164 1.79492 4.0293 1.48438 4.67383 1.29688C5.31836 1.09766 5.92188 0.998047 6.48438 0.998047H17.7168V5.56836H6.51953C6.28516 5.56836 6.09766 5.59766 5.95703 5.65625C5.82812 5.70312 5.72852 5.77344 5.6582 5.86719C5.59961 5.94922 5.56445 6.04297 5.55273 6.14844C5.54102 6.24219 5.53516 6.33594 5.53516 6.42969C5.54688 6.61719 5.58203 6.76367 5.64062 6.86914C5.69922 6.97461 5.76953 7.05078 5.85156 7.09766C5.94531 7.14453 6.04492 7.17383 6.15039 7.18555C6.26758 7.18555 6.37891 7.18555 6.48438 7.18555H13.5684C14.7402 7.18555 15.7363 7.39648 16.5566 7.81836C17.377 8.24023 18.0391 8.77344 18.543 9.41797C19.0469 10.0508 19.4102 10.7422 19.6328 11.4922C19.8672 12.2422 19.9844 12.9395 19.9844 13.584ZM41.6055 20H29.2129C28.5801 20 27.8887 19.8887 27.1387 19.666C26.3887 19.4434 25.6914 19.0801 25.0469 18.5762C24.4141 18.0605 23.8809 17.3984 23.4473 16.5898C23.0254 15.7695 22.8145 14.7676 22.8145 13.584V7.39648C22.8145 6.96289 22.8613 6.50586 22.9551 6.02539C23.0605 5.54492 23.2188 5.07031 23.4297 4.60156C23.6406 4.12109 23.9102 3.66406 24.2383 3.23047C24.5781 2.79688 24.9824 2.41602 25.4512 2.08789C25.9316 1.75977 26.4824 1.49609 27.1035 1.29688C27.7246 1.09766 28.4277 0.998047 29.2129 0.998047H41.6055V5.56836H29.2129C28.6152 5.56836 28.1582 5.7207 27.8418 6.02539C27.5371 6.33008 27.3848 6.79883 27.3848 7.43164V13.584C27.3848 14.1816 27.543 14.6387 27.8594 14.9551C28.1758 15.2715 28.6387 15.4297 29.248 15.4297H41.6055V20ZM65.916 13.584C65.916 14.3691 65.8164 15.0781 65.6172 15.7109C65.418 16.332 65.1543 16.8828 64.8262 17.3633C64.498 17.832 64.1172 18.2363 63.6836 18.5762C63.25 18.9043 62.793 19.1738 62.3125 19.3848C61.8438 19.5957 61.3633 19.7539 60.8711 19.8594C60.3906 19.9531 59.9336 20 59.5 20H51.2559C50.623 20 49.9316 19.8887 49.1816 19.666C48.4316 19.4434 47.7344 19.0801 47.0898 18.5762C46.457 18.0605 45.9238 17.3984 45.4902 16.5898C45.0684 15.7695 44.8574 14.7676 44.8574 13.584V7.39648C44.8574 6.22461 45.0684 5.23438 45.4902 4.42578C45.9238 3.60547 46.457 2.94336 47.0898 2.43945C47.7344 1.92383 48.4316 1.55469 49.1816 1.33203C49.9316 1.10938 50.623 0.998047 51.2559 0.998047H59.5C60.6719 0.998047 61.668 1.20898 62.4883 1.63086C63.3086 2.05273 63.9707 2.58594 64.4746 3.23047C64.9785 3.86328 65.3418 4.55469 65.5645 5.30469C65.7988 6.05469 65.916 6.75195 65.916 7.39648V13.584ZM61.3457 7.43164C61.3457 6.79883 61.1875 6.33008 60.8711 6.02539C60.5547 5.7207 60.0977 5.56836 59.5 5.56836H51.291C50.6816 5.56836 50.2188 5.72656 49.9023 6.04297C49.5859 6.34766 49.4277 6.79883 49.4277 7.39648V13.584C49.4277 14.1816 49.5859 14.6387 49.9023 14.9551C50.2188 15.2715 50.6816 15.4297 51.291 15.4297H59.5C60.1211 15.4297 60.584 15.2715 60.8887 14.9551C61.1934 14.6387 61.3457 14.1816 61.3457 13.584V7.43164ZM86.4473 5.56836H76.1641C75.543 5.56836 75.0742 5.72656 74.7578 6.04297C74.4414 6.34766 74.2832 6.79883 74.2832 7.39648V20H69.7129V7.39648C69.7129 6.61133 69.8125 5.9082 70.0117 5.28711C70.2109 4.66602 70.4746 4.12109 70.8027 3.65234C71.1426 3.17188 71.5293 2.76758 71.9629 2.43945C72.3965 2.09961 72.8477 1.82422 73.3164 1.61328C73.7969 1.40234 74.2773 1.25 74.7578 1.15625C75.25 1.05078 75.707 0.998047 76.1289 0.998047H86.4473V5.56836ZM109.844 7.29102C109.844 7.92383 109.732 8.60938 109.51 9.34766C109.287 10.0742 108.924 10.7539 108.42 11.3867C107.928 12.0078 107.277 12.5293 106.469 12.9512C105.672 13.373 104.699 13.584 103.551 13.584H95.3066V9.24219H103.551C104.172 9.24219 104.652 9.05469 104.992 8.67969C105.332 8.29297 105.502 7.81836 105.502 7.25586C105.502 6.6582 105.309 6.18945 104.922 5.84961C104.547 5.50977 104.09 5.33984 103.551 5.33984H95.3066C94.6855 5.33984 94.2051 5.5332 93.8652 5.91992C93.5254 6.29492 93.3555 6.76367 93.3555 7.32617V13.707C93.3555 14.3164 93.543 14.791 93.918 15.1309C94.3047 15.4707 94.7793 15.6406 95.3418 15.6406H103.551V20H95.3066C94.6738 20 93.9883 19.8887 93.25 19.666C92.5234 19.4434 91.8438 19.0859 91.2109 18.5938C90.5898 18.0898 90.0684 17.4395 89.6465 16.6426C89.2246 15.834 89.0137 14.8555 89.0137 13.707V7.29102C89.0137 6.6582 89.125 5.97852 89.3477 5.25195C89.5703 4.51367 89.9277 3.83398 90.4199 3.21289C90.9238 2.58008 91.5742 2.05273 92.3711 1.63086C93.1797 1.20898 94.1582 0.998047 95.3066 0.998047H103.551C104.184 0.998047 104.863 1.10938 105.59 1.33203C106.328 1.55469 107.008 1.91797 107.629 2.42188C108.262 2.91406 108.789 3.56445 109.211 4.37305C109.633 5.16992 109.844 6.14258 109.844 7.29102ZM117.42 17.6973C117.42 18.0137 117.355 18.3125 117.227 18.5938C117.109 18.8633 116.945 19.1035 116.734 19.3145C116.535 19.5137 116.295 19.6719 116.014 19.7891C115.744 19.9062 115.457 19.9648 115.152 19.9648C114.836 19.9648 114.537 19.9062 114.256 19.7891C113.986 19.6719 113.746 19.5137 113.535 19.3145C113.336 19.1035 113.178 18.8633 113.061 18.5938C112.943 18.3125 112.885 18.0137 112.885 17.6973C112.885 17.3926 112.943 17.1055 113.061 16.8359C113.178 16.5547 113.336 16.3145 113.535 16.1152C113.746 15.9043 113.986 15.7402 114.256 15.623C114.537 15.4941 114.836 15.4297 115.152 15.4297C115.457 15.4297 115.744 15.4941 116.014 15.623C116.295 15.7402 116.535 15.9043 116.734 16.1152C116.945 16.3145 117.109 16.5547 117.227 16.8359C117.355 17.1055 117.42 17.3926 117.42 17.6973ZM117.42 3.30078C117.42 3.61719 117.355 3.91602 117.227 4.19727C117.109 4.4668 116.945 4.70703 116.734 4.91797C116.535 5.11719 116.295 5.27539 116.014 5.39258C115.744 5.50977 115.457 5.56836 115.152 5.56836C114.836 5.56836 114.537 5.50977 114.256 5.39258C113.986 5.27539 113.746 5.11719 113.535 4.91797C113.336 4.70703 113.178 4.4668 113.061 4.19727C112.943 3.91602 112.885 3.61719 112.885 3.30078C112.885 2.99609 112.943 2.70898 113.061 2.43945C113.178 2.1582 113.336 1.91797 113.535 1.71875C113.746 1.50781 113.986 1.34375 114.256 1.22656C114.537 1.09766 114.836 1.0332 115.152 1.0332C115.457 1.0332 115.744 1.09766 116.014 1.22656C116.295 1.34375 116.535 1.50781 116.734 1.71875C116.945 1.91797 117.109 2.1582 117.227 2.43945C117.355 2.70898 117.42 2.99609 117.42 3.30078Z" fill="black"/>
</svg>
