<svg width="100" height="100" viewBox="0 0 481 481" fill="none" fill-opacity="0.8" xmlns="http://www.w3.org/2000/svg" >
<path d="M237.96 8C239.54 47.43 216.81 81.05 177.94 95.73C141.59 109.45 101.98 98.5 77.5299 71.19L72.8499 76.28C102.61 101.82 111.64 144.01 94.2899 182.42C78.2899 217.83 42.5299 238.09 5.93994 236.07L6.00995 243.7C44.1299 242.18 81.7399 263.94 96.4399 302.87C110.16 339.22 99.2099 378.83 71.8999 403.28L77.2799 408.24C104.93 378.25 144.8 369.2 183.13 386.52C218.54 402.52 238.8 438.28 236.78 474.87L243.55 474.51C241.93 434.8 263.22 399.6 303.57 384.37C339.92 370.65 379.53 381.6 403.98 408.91L408.66 404.11C378.65 378.35 370.11 335.55 387.22 297.69C403.22 262.28 438.98 242.02 475.58 244.04L475.51 236.7C436.08 239.71 399.75 216.12 385.08 177.25C371.36 140.9 382.03 101.29 409.33 76.84L404.24 71.88C378.98 100.79 336.8 110.96 298.39 93.6C262.98 77.6 242.72 41.84 244.74 5.25H237.96V8Z" fill="white" stroke="black" stroke-width="10" stroke-miterlimit="10"/>
<path d="M180.36 184.04C180.36 172.19 189.96 162.59 201.81 162.59C213.66 162.59 223.26 172.19 223.26 184.04" stroke="black" stroke-width="10" stroke-miterlimit="10"/>
<path d="M266.73 184.04C266.73 172.19 276.33 162.59 288.18 162.59C300.03 162.59 309.63 172.19 309.63 184.04" stroke="black" stroke-width="10" stroke-miterlimit="10"/>
<path d="M337.04 240.05C337.04 293.23 293.93 336.34 240.75 336.34C187.57 336.34 144.46 293.23 144.46 240.05" stroke="black" stroke-width="10" stroke-miterlimit="10"/>
</svg>
