<svg width="305" height="57" viewBox="0 0 305 57" fill="none" xmlns="http://www.w3.org/2000/svg">
<g filter="url(#filter0_d)">
<path d="M60.4688 15.2188C59.1771 18.1146 57.7812 20.9688 56.2812 23.7812C54.7812 26.5729 53.2083 29.2188 51.5625 31.7188C49.9375 34.2188 48.2708 36.5312 46.5625 38.6562C44.8542 40.7604 43.1562 42.5833 41.4688 44.125C39.8021 45.6458 38.1667 46.8438 36.5625 47.7188C34.9792 48.5729 33.4792 49 32.0625 49C31.4792 49 30.9375 48.8958 30.4375 48.6875C29.9375 48.4792 29.5 48.1979 29.125 47.8438C28.75 47.4688 28.4583 47.0312 28.25 46.5312C28.0417 46.0312 27.9375 45.4896 27.9375 44.9062V29.75L11.8125 47.7812C11.3958 48.1979 10.9375 48.5104 10.4375 48.7188C9.95833 48.9062 9.45833 49 8.9375 49C8.375 49 7.84375 48.8958 7.34375 48.6875C6.86458 48.4792 6.4375 48.1979 6.0625 47.8438C5.6875 47.4688 5.38542 47.0312 5.15625 46.5312C4.94792 46.0312 4.84375 45.4896 4.84375 44.9062V15.2188H12.9688V34.4688L29.1562 16.375C29.7396 15.7917 30.4271 15.4271 31.2188 15.2812C32.0312 15.1146 32.8229 15.1979 33.5938 15.5312C34.3646 15.8438 34.9688 16.3438 35.4062 17.0312C35.8646 17.6979 36.0938 18.4375 36.0938 19.25V38.5625C37.8438 36.875 39.4271 35.0938 40.8438 33.2188C42.2604 31.3438 43.5729 29.4167 44.7812 27.4375C46.0104 25.4375 47.1562 23.4167 48.2188 21.375C49.3021 19.3125 50.3542 17.2604 51.375 15.2188H60.4688ZM99.625 26.4062C99.625 27.5312 99.4271 28.75 99.0312 30.0625C98.6354 31.3542 97.9896 32.5625 97.0938 33.6875C96.2188 34.7917 95.0625 35.7188 93.625 36.4688C92.2083 37.2188 90.4792 37.5938 88.4375 37.5938H73.7812V29.875H88.4375C89.5417 29.875 90.3958 29.5417 91 28.875C91.6042 28.1875 91.9062 27.3438 91.9062 26.3438C91.9062 25.2812 91.5625 24.4479 90.875 23.8438C90.2083 23.2396 89.3958 22.9375 88.4375 22.9375H73.7812C72.6771 22.9375 71.8229 23.2812 71.2188 23.9688C70.6146 24.6354 70.3125 25.4688 70.3125 26.4688V37.8125C70.3125 38.8958 70.6458 39.7396 71.3125 40.3438C72 40.9479 72.8438 41.25 73.8438 41.25H88.4375V49H73.7812C72.6562 49 71.4375 48.8021 70.125 48.4062C68.8333 48.0104 67.625 47.375 66.5 46.5C65.3958 45.6042 64.4688 44.4479 63.7188 43.0312C62.9688 41.5938 62.5938 39.8542 62.5938 37.8125V26.4062C62.5938 25.2812 62.7917 24.0729 63.1875 22.7812C63.5833 21.4688 64.2188 20.2604 65.0938 19.1562C65.9896 18.0312 67.1458 17.0938 68.5625 16.3438C70 15.5938 71.7396 15.2188 73.7812 15.2188H88.4375C89.5625 15.2188 90.7708 15.4167 92.0625 15.8125C93.375 16.2083 94.5833 16.8542 95.6875 17.75C96.8125 18.625 97.75 19.7812 98.5 21.2188C99.25 22.6354 99.625 24.3646 99.625 26.4062ZM119.938 49H116.312C115.146 49 113.896 48.8021 112.562 48.4062C111.25 48.0104 110.021 47.3646 108.875 46.4688C107.729 45.5521 106.781 44.375 106.031 42.9375C105.281 41.4792 104.906 39.6979 104.906 37.5938V0.9375H113.031V37.5938C113.031 38.5938 113.344 39.3958 113.969 40C114.594 40.5833 115.375 40.875 116.312 40.875H119.938V49ZM157.875 49H135.844C134.719 49 133.49 48.8021 132.156 48.4062C130.823 48.0104 129.583 47.3646 128.438 46.4688C127.312 45.5521 126.365 44.375 125.594 42.9375C124.844 41.4792 124.469 39.6979 124.469 37.5938V26.5938C124.469 25.8229 124.552 25.0104 124.719 24.1562C124.906 23.3021 125.188 22.4583 125.562 21.625C125.938 20.7708 126.417 19.9583 127 19.1875C127.604 18.4167 128.323 17.7396 129.156 17.1562C130.01 16.5729 130.99 16.1042 132.094 15.75C133.198 15.3958 134.448 15.2188 135.844 15.2188H157.875V23.3438H135.844C134.781 23.3438 133.969 23.6146 133.406 24.1562C132.865 24.6979 132.594 25.5312 132.594 26.6562V37.5938C132.594 38.6562 132.875 39.4688 133.438 40.0312C134 40.5938 134.823 40.875 135.906 40.875H157.875V49ZM201.094 37.5938C201.094 38.9896 200.917 40.25 200.562 41.375C200.208 42.4792 199.74 43.4583 199.156 44.3125C198.573 45.1458 197.896 45.8646 197.125 46.4688C196.354 47.0521 195.542 47.5312 194.688 47.9062C193.854 48.2812 193 48.5625 192.125 48.75C191.271 48.9167 190.458 49 189.688 49H175.031C173.906 49 172.677 48.8021 171.344 48.4062C170.01 48.0104 168.771 47.3646 167.625 46.4688C166.5 45.5521 165.552 44.375 164.781 42.9375C164.031 41.4792 163.656 39.6979 163.656 37.5938V26.5938C163.656 24.5104 164.031 22.75 164.781 21.3125C165.552 19.8542 166.5 18.6771 167.625 17.7812C168.771 16.8646 170.01 16.2083 171.344 15.8125C172.677 15.4167 173.906 15.2188 175.031 15.2188H189.688C191.771 15.2188 193.542 15.5938 195 16.3438C196.458 17.0938 197.635 18.0417 198.531 19.1875C199.427 20.3125 200.073 21.5417 200.469 22.875C200.885 24.2083 201.094 25.4479 201.094 26.5938V37.5938ZM192.969 26.6562C192.969 25.5312 192.688 24.6979 192.125 24.1562C191.562 23.6146 190.75 23.3438 189.688 23.3438H175.094C174.01 23.3438 173.188 23.625 172.625 24.1875C172.062 24.7292 171.781 25.5312 171.781 26.5938V37.5938C171.781 38.6562 172.062 39.4688 172.625 40.0312C173.188 40.5938 174.01 40.875 175.094 40.875H189.688C190.792 40.875 191.615 40.5938 192.156 40.0312C192.698 39.4688 192.969 38.6562 192.969 37.5938V26.6562ZM238.188 49H230.062V26.5938C230.062 25.5312 229.781 24.7292 229.219 24.1875C228.656 23.625 227.823 23.3438 226.719 23.3438H216.156V49H208.031V19.25C208.031 18.6875 208.135 18.1667 208.344 17.6875C208.552 17.1875 208.844 16.7604 209.219 16.4062C209.594 16.0312 210.031 15.7396 210.531 15.5312C211.031 15.3229 211.562 15.2188 212.125 15.2188H226.781C227.906 15.2188 229.115 15.4167 230.406 15.8125C231.698 16.2083 232.927 16.8438 234.094 17.7188V15.2188H245.094C245.865 15.2188 246.677 15.3125 247.531 15.5C248.385 15.6667 249.229 15.9375 250.062 16.3125C250.917 16.6875 251.729 17.1771 252.5 17.7812C253.271 18.3646 253.948 19.0833 254.531 19.9375C255.115 20.7708 255.583 21.7396 255.938 22.8438C256.292 23.9479 256.469 25.1979 256.469 26.5938V49H248.344V26.5938C248.344 25.5312 248.073 24.7292 247.531 24.1875C247.01 23.625 246.198 23.3438 245.094 23.3438H237.781C238.052 24.3438 238.188 25.4271 238.188 26.5938V49ZM300.312 26.4062C300.312 27.5312 300.115 28.75 299.719 30.0625C299.323 31.3542 298.677 32.5625 297.781 33.6875C296.906 34.7917 295.75 35.7188 294.312 36.4688C292.896 37.2188 291.167 37.5938 289.125 37.5938H274.469V29.875H289.125C290.229 29.875 291.083 29.5417 291.688 28.875C292.292 28.1875 292.594 27.3438 292.594 26.3438C292.594 25.2812 292.25 24.4479 291.562 23.8438C290.896 23.2396 290.083 22.9375 289.125 22.9375H274.469C273.365 22.9375 272.51 23.2812 271.906 23.9688C271.302 24.6354 271 25.4688 271 26.4688V37.8125C271 38.8958 271.333 39.7396 272 40.3438C272.688 40.9479 273.531 41.25 274.531 41.25H289.125V49H274.469C273.344 49 272.125 48.8021 270.812 48.4062C269.521 48.0104 268.312 47.375 267.188 46.5C266.083 45.6042 265.156 44.4479 264.406 43.0312C263.656 41.5938 263.281 39.8542 263.281 37.8125V26.4062C263.281 25.2812 263.479 24.0729 263.875 22.7812C264.271 21.4688 264.906 20.2604 265.781 19.1562C266.677 18.0312 267.833 17.0938 269.25 16.3438C270.688 15.5938 272.427 15.2188 274.469 15.2188H289.125C290.25 15.2188 291.458 15.4167 292.75 15.8125C294.062 16.2083 295.271 16.8542 296.375 17.75C297.5 18.625 298.438 19.7812 299.188 21.2188C299.938 22.6354 300.312 24.3646 300.312 26.4062Z" fill="black"/>
</g>
<defs>
<filter id="filter0_d" x="0.84375" y="0.9375" width="303.469" height="56.0625" filterUnits="userSpaceOnUse" color-interpolation-filters="sRGB">
<feFlood flood-opacity="0" result="BackgroundImageFix"/>
<feColorMatrix in="SourceAlpha" type="matrix" values="0 0 0 0 0 0 0 0 0 0 0 0 0 0 0 0 0 0 127 0"/>
<feOffset dy="4"/>
<feGaussianBlur stdDeviation="2"/>
<feColorMatrix type="matrix" values="0 0 0 0 0 0 0 0 0 0 0 0 0 0 0 0 0 0 0.25 0"/>
<feBlend mode="normal" in2="BackgroundImageFix" result="effect1_dropShadow"/>
<feBlend mode="normal" in="SourceGraphic" in2="effect1_dropShadow" result="shape"/>
</filter>
</defs>
</svg>
